<svg xmlns="http://www.w3.org/2000/svg" viewBox="0 0 529.75 57.6"><defs><style>.cls-1{fill:#ff6c31;}.cls-2{fill:#b24116;}</style></defs><title>Logo-Long</title><g id="Laag_2" data-name="Laag 2"><g id="Logos"><g id="Part"><g id="Logo-Long"><path class="cls-1" d="M.56,56.24A1.86,1.86,0,0,1,0,54.88V2.8A2,2,0,0,1,.52,1.36,1.83,1.83,0,0,1,1.92.8H21.44Q45,.8,45.52,22.56q.16,4.64.16,6.24c0,1,0,3.07-.16,6.16q-.32,11.2-6,16.52T21.84,56.8H1.92A1.86,1.86,0,0,1,.56,56.24Zm20.88-8.72q6.65,0,9.6-3t3.12-9.84q.17-4.8.16-6c0-.85,0-2.83-.16-5.92q-.16-6.56-3.28-9.64T21,10.08H11.28V47.52Z"/><path class="cls-1" d="M206.24,53q-3.69-3.8-3.68-11.16V23.76h-6.32a1.85,1.85,0,0,1-1.36-.56,1.83,1.83,0,0,1-.56-1.36V17.12a1.83,1.83,0,0,1,.56-1.36,1.85,1.85,0,0,1,1.36-.56h6.32V1.92a1.8,1.8,0,0,1,.56-1.4A1.9,1.9,0,0,1,204.48,0h6.64a1.89,1.89,0,0,1,1.4.52,1.92,1.92,0,0,1,.52,1.4V15.2h10A1.91,1.91,0,0,1,225,17.12v4.72A1.91,1.91,0,0,1,223,23.76H213V41a9.25,9.25,0,0,0,1.2,5.2,4.4,4.4,0,0,0,3.92,1.76h5.6a1.89,1.89,0,0,1,1.4.52,1.92,1.92,0,0,1,.52,1.4v5a2,2,0,0,1-.52,1.36,1.84,1.84,0,0,1-1.4.56H217.2Q209.91,56.8,206.24,53Z"/><path class="cls-1" d="M234.72,56.24a1.83,1.83,0,0,1-.56-1.36v-53a1.8,1.8,0,0,1,.56-1.4A1.9,1.9,0,0,1,236.08,0h7.28a1.89,1.89,0,0,1,1.4.52,1.92,1.92,0,0,1,.52,1.4V20.16a15.9,15.9,0,0,1,12.88-5.76q7.35,0,11.76,4.84t4.4,13.16V54.88a2,2,0,0,1-.52,1.36,1.84,1.84,0,0,1-1.4.56h-7.28a2,2,0,0,1-1.44-.56,1.83,1.83,0,0,1-.56-1.36v-22a10.62,10.62,0,0,0-2.28-7.24,8.23,8.23,0,0,0-6.52-2.6,8.57,8.57,0,0,0-6.56,2.64,10.06,10.06,0,0,0-2.48,7.2v22a2,2,0,0,1-.52,1.36,1.84,1.84,0,0,1-1.4.56h-7.28A1.85,1.85,0,0,1,234.72,56.24Z"/><path class="cls-1" d="M289.56,52.48q-5.25-5.11-5.56-14.56l-.08-2q0-10,5.24-15.76t14.52-5.76q9.51,0,14.68,5.76t5.16,15.36V37.2a1.86,1.86,0,0,1-.56,1.36,2,2,0,0,1-1.44.56H295v.64a12.37,12.37,0,0,0,2.44,7.4,7.52,7.52,0,0,0,6.28,2.92,9,9,0,0,0,7.44-3.68,4.17,4.17,0,0,1,1.12-1.08,3.33,3.33,0,0,1,1.36-.2h7a2,2,0,0,1,1.24.4,1.35,1.35,0,0,1,.52,1.12q0,1.92-2.28,4.52a19,19,0,0,1-6.52,4.52,23.67,23.67,0,0,1-9.84,1.92Q294.79,57.6,289.56,52.48Zm22.92-20.16v-.16a11.46,11.46,0,0,0-2.36-7.56,8,8,0,0,0-6.44-2.84,7.81,7.81,0,0,0-6.4,2.84A11.55,11.55,0,0,0,295,32.16v.16Z"/><path class="cls-1" d="M359.83,56.24a1.86,1.86,0,0,1-.55-1.36V2.8a2,2,0,0,1,.51-1.44A1.85,1.85,0,0,1,361.2.8h6.47a2.7,2.7,0,0,1,2.41,1.52L385.52,31,401,2.32A2.67,2.67,0,0,1,403.36.8h6.39a2,2,0,0,1,1.45.56,1.94,1.94,0,0,1,.55,1.44V54.88a1.82,1.82,0,0,1-.55,1.4,2,2,0,0,1-1.45.52h-6.87a1.85,1.85,0,0,1-1.36-.56,1.83,1.83,0,0,1-.56-1.36V20.48L389.83,41.6a2.81,2.81,0,0,1-2.63,1.76h-3.37a3.08,3.08,0,0,1-2.71-1.76L370,20.48v34.4a2,2,0,0,1-.52,1.36,1.84,1.84,0,0,1-1.4.56H361.2A1.89,1.89,0,0,1,359.83,56.24Z"/><path class="cls-1" d="M519.75,56.24a1.86,1.86,0,0,1-.56-1.36v-53a1.83,1.83,0,0,1,.56-1.4A1.93,1.93,0,0,1,521.11,0h6.72a1.86,1.86,0,0,1,1.4.52,1.88,1.88,0,0,1,.52,1.4v53a1.91,1.91,0,0,1-.52,1.36,1.82,1.82,0,0,1-1.4.56h-6.72A1.88,1.88,0,0,1,519.75,56.24Z"/><path class="cls-2" d="M135.28,18.57q-4.32-4.23-13.76-4.24a24.85,24.85,0,0,0-7.62,1.07,26.7,26.7,0,0,0-6.81,3.72c-1.47,1-2.93,2.07-4.49,2.95A12.5,12.5,0,0,1,96.53,24a9.19,9.19,0,0,1-6.4-2.85,23.77,23.77,0,0,0-5.21-4.39,19.31,19.31,0,0,0-6.19-2.06,27.45,27.45,0,0,0-4.25-.32q-9.28,0-14.52,5.76T54.72,35.85l.08,2q.31,9.45,5.56,14.56t14.2,5.12a23.24,23.24,0,0,0,9.22-1.68c3.51-1.51,6.38-4.22,10-5.41a10.65,10.65,0,0,1,7.07,0c2.39.91,4,3,6.15,4.42a16.47,16.47,0,0,0,9.12,2.64,17.47,17.47,0,0,0,8-1.64,13.06,13.06,0,0,0,5-4.2v3.12A1.91,1.91,0,0,0,131,56.73h6.64a1.81,1.81,0,0,0,1.4-.56,1.9,1.9,0,0,0,.52-1.36V29.69A14.9,14.9,0,0,0,135.28,18.57ZM65.76,32.09a12.22,12.22,0,0,1,1.82-6.88,7.9,7.9,0,0,1,.5-.68,7.81,7.81,0,0,1,6.4-2.84,8,8,0,0,1,6,2.3,5.59,5.59,0,0,1,1.82,4.19C82,30.4,79.43,31,77.61,31.37a56.68,56.68,0,0,1-10.16.88c-1.08,0-1.69,0-1.69,0Zm28.26,9c-2,1.3-4,2.69-6.07,4-5.23,3.25-14.75,8.44-19.75,2a12.44,12.44,0,0,1-2.44-7.4v-.64a102.37,102.37,0,0,0,17.9-1.79,58,58,0,0,0,9.5-2.32,43.21,43.21,0,0,0,9.47-4.85c2.93-2,5.84-3.9,9-5.56s6.44-3,9.86-2.84q3.84,0,5.6,1.76a7.08,7.08,0,0,1,1.76,5.2v1.7l-.58.06-9.51,1.4c-1.74.31-3.5.66-5.25,1.06h0A64.71,64.71,0,0,0,94,41.08Zm34.86-2.43q0,5.45-2.8,8.32a9.61,9.61,0,0,1-7.2,2.88,9,9,0,0,1-5.08-1.4,4.48,4.48,0,0,1-2.12-4q0-4.73,9.2-6.16l8-1.28Z"/><path class="cls-2" d="M503.28,18.57q-4.32-4.23-13.76-4.24a24.81,24.81,0,0,0-7.62,1.07,26.53,26.53,0,0,0-6.81,3.72c-1.47,1-2.93,2.07-4.49,2.95A12.5,12.5,0,0,1,464.53,24a9.19,9.19,0,0,1-6.4-2.85,23.77,23.77,0,0,0-5.21-4.39,19.39,19.39,0,0,0-6.19-2.06,27.55,27.55,0,0,0-4.25-.32q-9.28,0-14.52,5.76t-5.24,15.76l.08,2q.31,9.45,5.56,14.56t14.2,5.12a23.24,23.24,0,0,0,9.22-1.68c3.51-1.51,6.38-4.22,10-5.41a10.62,10.62,0,0,1,7.06,0c2.4.91,4.05,3,6.16,4.42a16.47,16.47,0,0,0,9.12,2.64,17.5,17.5,0,0,0,8-1.64,13.14,13.14,0,0,0,5-4.2v3.12A1.91,1.91,0,0,0,499,56.73h6.64a1.81,1.81,0,0,0,1.4-.56,1.94,1.94,0,0,0,.52-1.36V29.69A14.9,14.9,0,0,0,503.28,18.57ZM433.76,32.09a12.29,12.29,0,0,1,1.81-6.88c.16-.23.33-.46.51-.68a7.81,7.81,0,0,1,6.4-2.84,8,8,0,0,1,5.95,2.3,5.59,5.59,0,0,1,1.82,4.19c-.26,2.22-2.83,2.84-4.64,3.19a56.76,56.76,0,0,1-10.16.88c-1.09,0-1.69,0-1.69,0Zm28.26,9c-1.95,1.3-4,2.69-6.07,4-5.23,3.25-14.75,8.44-19.75,2a12.37,12.37,0,0,1-2.44-7.4v-.64a102.47,102.47,0,0,0,17.9-1.79,58.26,58.26,0,0,0,9.5-2.32,43.66,43.66,0,0,0,9.47-4.85,104.28,104.28,0,0,1,8.95-5.56c3-1.58,6.44-3,9.86-2.84,2.56,0,4.42.59,5.6,1.76a7.08,7.08,0,0,1,1.76,5.2v1.7l-.58.06-9.52,1.4c-1.73.31-3.5.66-5.24,1.06h0A64.76,64.76,0,0,0,462,41.08Zm34.86-2.43c0,3.63-.94,6.4-2.8,8.32a9.61,9.61,0,0,1-7.2,2.88,8.93,8.93,0,0,1-5.08-1.4,4.46,4.46,0,0,1-2.12-4q0-4.73,9.2-6.16l8-1.28Z"/><path class="cls-1" d="M151.76,56.24a1.83,1.83,0,0,1-.56-1.36v-53a1.8,1.8,0,0,1,.56-1.4A1.9,1.9,0,0,1,153.12,0h6.72a1.89,1.89,0,0,1,1.4.52,1.92,1.92,0,0,1,.52,1.4v53a2,2,0,0,1-.52,1.36,1.84,1.84,0,0,1-1.4.56h-6.72A1.85,1.85,0,0,1,151.76,56.24Z"/></g></g></g></g></svg>